<svg xmlns="http://www.w3.org/2000/svg" xmlns:xlink="http://www.w3.org/1999/xlink" viewBox="0 0 714.33 714.33"><defs><style>.cls-1{fill:#93a2ad;}.cls-1,.cls-2,.cls-3,.cls-4,.cls-5{fill-rule:evenodd;}.cls-2{fill:url(#linear-gradient);}.cls-3{fill:url(#linear-gradient-2);}.cls-4{fill:url(#linear-gradient-3);}.cls-5{fill:url(#linear-gradient-4);}</style><linearGradient id="linear-gradient" x1="-1623.76" y1="165.11" x2="-1764.05" y2="329.94" gradientTransform="matrix(1, 0, -0.41, 1, 2109.42, 0)" gradientUnits="userSpaceOnUse"><stop offset="0.12" stop-color="#44339f"/><stop offset="0.15" stop-color="#433ba3"/><stop offset="0.28" stop-color="#3b62b9"/><stop offset="0.41" stop-color="#3583cb"/><stop offset="0.54" stop-color="#309dd8"/><stop offset="0.68" stop-color="#2dafe2"/><stop offset="0.83" stop-color="#2bbae8"/><stop offset="1" stop-color="#2abdea"/></linearGradient><linearGradient id="linear-gradient-2" x1="-1783.62" y1="284.28" x2="-1715.2" y2="500.06" xlink:href="#linear-gradient"/><linearGradient id="linear-gradient-3" x1="-1693.75" y1="489.07" x2="-1524.27" y2="525.3" xlink:href="#linear-gradient"/><linearGradient id="linear-gradient-4" x1="-3610.87" y1="8701.14" x2="-3551.21" y2="8889.3" gradientTransform="matrix(-0.84, 0.82, -0.65, -0.53, 3162.9, 7786.41)" gradientUnits="userSpaceOnUse"><stop offset="0.2" stop-color="#44339f"/><stop offset="0.24" stop-color="#4144a8"/><stop offset="0.34" stop-color="#3a69bc"/><stop offset="0.46" stop-color="#3487cd"/><stop offset="0.57" stop-color="#309fda"/><stop offset="0.7" stop-color="#2cb0e3"/><stop offset="0.83" stop-color="#2bbae8"/><stop offset="1" stop-color="#2abdea"/></linearGradient></defs><g id="Layer_3" data-name="Layer 3"><polygon class="cls-1" points="600.32 296.11 552.22 148.64 408.38 356.29 600.32 296.11"/><polygon class="cls-2" points="305.94 174.35 114.01 368.5 375.67 277.1 305.94 174.35"/><polygon class="cls-3" points="114.01 368.5 151.83 567.32 292.47 306.16 114.01 368.5"/><polygon class="cls-4" points="289.59 424.45 196.04 567.39 390.82 567.68 289.59 424.45"/><polygon class="cls-1" points="390.82 567.68 576.41 393.55 323.8 472.84 390.82 567.68"/><polygon class="cls-5" points="552.22 148.64 337.76 146.65 447.68 299.56 552.22 148.64"/></g></svg>