<svg width="35" height="35" viewBox="0 0 35 35" fill="none" xmlns="http://www.w3.org/2000/svg">
<rect x="1.32861" y="1.32874" width="32.3218" height="32.3218" fill="#1C1C1C"/>
<path fill-rule="evenodd" clip-rule="evenodd" d="M1.32872 0H33.6503C34.3842 0 34.979 0.59489 34.979 1.32872V33.6503C34.979 34.3842 34.3842 34.979 33.6503 34.979H1.32872C0.59489 34.979 0 34.3842 0 33.6503V1.32872C0 0.59489 0.59489 0 1.32872 0ZM33.6503 33.6503V1.32872H1.32872V33.6503H33.6503Z" fill="#1C1C1C"/>
<path d="M20.2732 12.722L15.7337 22.7636L10.1252 22.7978L17.1027 7.29874L20.2732 12.722V12.722Z" fill="#8D8D8D"/>
<path d="M29.4025 13.6579L24.3882 24.7983L16.5054 25.4571L24.986 6.62878L29.4025 13.6579V13.6579Z" fill="#8D8D8D"/>
<path d="M12.8898 11.9173L9.15551 20.2184L3.92578 19.7339L9.34497 7.6904L12.8898 11.9173V11.9173Z" fill="url(#paint0_linear_532_105)"/>
<path fill-rule="evenodd" clip-rule="evenodd" d="M26.7969 24.5156C26.7969 23.9633 27.2446 23.5156 27.7969 23.5156H30.7188C31.271 23.5156 31.7188 23.9633 31.7188 24.5156V30.7188C31.7188 31.271 31.271 31.7188 30.7188 31.7188H27.7969C27.2446 31.7188 26.7969 31.271 26.7969 30.7188V24.5156ZM27.3438 24.0625H31.1719V30.0781H27.3438V24.0625ZM29.2578 31.1719C29.4088 31.1719 29.5312 31.0495 29.5312 30.8984C29.5312 30.7474 29.4088 30.625 29.2578 30.625C29.1068 30.625 28.9844 30.7474 28.9844 30.8984C28.9844 31.0495 29.1068 31.1719 29.2578 31.1719Z" fill="#D8D8D8"/>
<defs>
<linearGradient id="paint0_linear_532_105" x1="4.31299" y1="19.1643" x2="12.3723" y2="19.6704" gradientUnits="userSpaceOnUse">
<stop stop-color="#EEA600"/>
<stop offset="1" stop-color="#FFDF41"/>
</linearGradient>
</defs>
</svg>
