<svg xmlns="http://www.w3.org/2000/svg" xmlns:xlink="http://www.w3.org/1999/xlink" viewBox="0 0 714.33 714.33"><defs><style>.cls-1{fill:#93a2ad;}.cls-2{fill:url(#linear-gradient);}.cls-3{fill:url(#linear-gradient-2);}</style><linearGradient id="linear-gradient" x1="108.18" y1="-2326.08" x2="552.32" y2="-2326.08" gradientTransform="matrix(1, 0, 0, -1, 0, -1936.6)" gradientUnits="userSpaceOnUse"><stop offset="0" stop-color="#789df4"/><stop offset="1" stop-color="#d694f9"/></linearGradient><linearGradient id="linear-gradient-2" x1="407.05" y1="570.19" x2="606.15" y2="570.19" gradientTransform="matrix(1, 0, 0, 1, 0, 0)" xlink:href="#linear-gradient"/></defs><g id="Layer_3" data-name="Layer 3"><polygon class="cls-1" points="458.71 97.09 460.14 95.5 208.73 166.45 165.98 318 366.59 261.39 458.71 97.09"/><polygon class="cls-1" points="302.79 504.9 264.58 618.83 392.08 478.1 302.79 504.9"/><polygon class="cls-2" points="151.11 372.72 552.32 255.32 442.8 423.2 108.18 523.64 151.11 372.72"/><path class="cls-3" d="M407.05,523.64h27.27l22.21,36,22.21-36H506v93.1H480.34V563.27l-23.81,36.45H456l-23.67-36.31v53.33H407.05Zm197.76,0L574.23,569l31.92,47.75H576.48l-17.82-28.2-17.95,28.2h-29l31.92-47.35L513,523.64H542.7l16.36,26.2,16.76-26.2Z"/></g></svg>